<svg width="12" height="12" viewBox="0 0 12 12" fill="none" xmlns="http://www.w3.org/2000/svg">
<path d="M11.8082 3.04845L11.4151 2.65264C11.2914 2.52903 11.1268 2.46093 10.9509 2.46093C10.7751 2.46093 10.6103 2.52903 10.4866 2.65264L6.00268 7.13678L1.51357 2.64767C1.39006 2.52406 1.22528 2.45605 1.04947 2.45605C0.873666 2.45605 0.708786 2.52406 0.585176 2.64767L0.192002 3.04104C-0.0640005 3.29684 -0.0640005 3.71353 0.192002 3.96934L5.53683 9.33338C5.66034 9.45689 5.82493 9.54392 6.00229 9.54392H6.00434C6.18025 9.54392 6.34483 9.4568 6.46835 9.33338L11.8082 3.98387C11.9319 3.86036 11.9998 3.6908 12 3.51499C12 3.33909 11.9319 3.17187 11.8082 3.04845Z" fill="#0071DC"/>
</svg>
