<svg width="10" height="7" viewBox="0 0 10 7" fill="none" xmlns="http://www.w3.org/2000/svg">
<path d="M9.84016 1.04042L9.5126 0.710576C9.40951 0.607567 9.27235 0.550818 9.12577 0.550818C8.97926 0.550818 8.84194 0.607567 8.73885 0.710576L5.00224 4.44735L1.26131 0.706429C1.15838 0.60342 1.02107 0.546753 0.87456 0.546753C0.728055 0.546753 0.590655 0.60342 0.487646 0.706429L0.160001 1.03424C-0.0533338 1.24741 -0.0533338 1.59465 0.160001 1.80782L4.61402 6.27786C4.71695 6.38078 4.8541 6.45331 5.00191 6.45331H5.00362C5.1502 6.45331 5.28736 6.3807 5.39029 6.27786L9.84016 1.81993C9.94325 1.71701 9.99984 1.5757 10 1.4292C10 1.28261 9.94325 1.14326 9.84016 1.04042Z" fill="#E4F5F6"/>
</svg>
