<svg width="16" height="10" viewBox="0 0 16 10" fill="none" xmlns="http://www.w3.org/2000/svg">
<path d="M15.7443 1.06464L15.2202 0.536896C15.0552 0.372082 14.8358 0.281285 14.6012 0.281285C14.3668 0.281285 14.1471 0.372082 13.9822 0.536896L8.00358 6.51574L2.0181 0.530262C1.85341 0.365448 1.6337 0.27478 1.3993 0.27478C1.16489 0.27478 0.945048 0.365448 0.780234 0.530262L0.256002 1.05475C-0.085334 1.39583 -0.085334 1.95141 0.256002 2.29249L7.38243 9.44455C7.54712 9.60923 7.76657 9.72527 8.00306 9.72527H8.00579C8.24033 9.72527 8.45978 9.6091 8.62446 9.44455L15.7443 2.31187C15.9092 2.14719 15.9997 1.9211 16 1.68669C16 1.45216 15.9092 1.22919 15.7443 1.06464Z" fill="#646464"/>
</svg>
