<svg width="16" height="10" viewBox="0 0 16 10" fill="none" xmlns="http://www.w3.org/2000/svg">
<path d="M0.255743 8.93539L0.779844 9.46314C0.944789 9.62795 1.16424 9.71875 1.39878 9.71875C1.63318 9.71875 1.85289 9.62795 2.01784 9.46314L7.99642 3.48429L13.9819 9.46977C14.1466 9.63458 14.3663 9.72525 14.6007 9.72525C14.8351 9.72525 15.055 9.63458 15.2198 9.46977L15.744 8.94528C16.0853 8.6042 16.0853 8.04862 15.744 7.70754L8.61757 0.555483C8.45288 0.390798 8.23343 0.274765 7.99694 0.274765L7.99421 0.274765C7.75967 0.274765 7.54022 0.390929 7.37554 0.555483L0.255743 7.68816C0.0907982 7.85285 0.000260209 8.07893 -1.23433e-07 8.31334C-1.02929e-07 8.54788 0.0907983 8.77084 0.255743 8.93539Z" fill="url(#paint0_linear_112_8474)"/>
<defs>
<linearGradient id="paint0_linear_112_8474" x1="16" y1="9.2913" x2="7.53148" y2="-4.38784" gradientUnits="userSpaceOnUse">
<stop stop-color="#9BD4A7"/>
<stop offset="1" stop-color="#309EA9"/>
</linearGradient>
</defs>
</svg>
